<mxfile host="Electron" modified="2023-06-05T05:37:38.148Z" agent="Mozilla/5.0 (Windows NT 10.0; Win64; x64) AppleWebKit/537.36 (KHTML, like Gecko) draw.io/21.2.8 Chrome/112.0.5615.165 Electron/24.2.0 Safari/537.36" etag="k03Az-nipiPzjYhKKT32" version="21.2.8" type="device">
  <diagram name="Page-1" id="4RmYydMkPiRe07PDK6gk">
    <mxGraphModel dx="864" dy="508" grid="1" gridSize="10" guides="1" tooltips="1" connect="1" arrows="1" fold="1" page="1" pageScale="1" pageWidth="850" pageHeight="1100" math="0" shadow="0">
      <root>
        <mxCell id="0" />
        <mxCell id="1" parent="0" />
        <mxCell id="k0u0P2U74oiS7Tp1_Vz9-1" value="Star" style="ellipse;whiteSpace=wrap;html=1;" vertex="1" parent="1">
          <mxGeometry x="360" y="230" width="120" height="80" as="geometry" />
        </mxCell>
        <mxCell id="k0u0P2U74oiS7Tp1_Vz9-2" value="" style="endArrow=classic;html=1;rounded=0;exitX=0.5;exitY=1;exitDx=0;exitDy=0;" edge="1" parent="1" source="k0u0P2U74oiS7Tp1_Vz9-1">
          <mxGeometry width="50" height="50" relative="1" as="geometry">
            <mxPoint x="400" y="290" as="sourcePoint" />
            <mxPoint x="420" y="360" as="targetPoint" />
          </mxGeometry>
        </mxCell>
        <mxCell id="k0u0P2U74oiS7Tp1_Vz9-3" value="input Nilai Pengambilan produk" style="shape=parallelogram;perimeter=parallelogramPerimeter;whiteSpace=wrap;html=1;fixedSize=1;" vertex="1" parent="1">
          <mxGeometry x="340" y="360" width="160" height="60" as="geometry" />
        </mxCell>
        <mxCell id="k0u0P2U74oiS7Tp1_Vz9-4" value="" style="endArrow=classic;html=1;rounded=0;exitX=0.5;exitY=1;exitDx=0;exitDy=0;exitPerimeter=0;" edge="1" parent="1" source="k0u0P2U74oiS7Tp1_Vz9-3">
          <mxGeometry width="50" height="50" relative="1" as="geometry">
            <mxPoint x="420" y="430" as="sourcePoint" />
            <mxPoint x="420" y="470" as="targetPoint" />
          </mxGeometry>
        </mxCell>
        <mxCell id="k0u0P2U74oiS7Tp1_Vz9-5" value="input nilai jumlah kendaraan" style="shape=parallelogram;perimeter=parallelogramPerimeter;whiteSpace=wrap;html=1;fixedSize=1;" vertex="1" parent="1">
          <mxGeometry x="345" y="470" width="150" height="60" as="geometry" />
        </mxCell>
        <mxCell id="k0u0P2U74oiS7Tp1_Vz9-6" value="" style="endArrow=classic;html=1;rounded=0;exitX=0.5;exitY=1;exitDx=0;exitDy=0;" edge="1" parent="1" source="k0u0P2U74oiS7Tp1_Vz9-5">
          <mxGeometry width="50" height="50" relative="1" as="geometry">
            <mxPoint x="410" y="540" as="sourcePoint" />
            <mxPoint x="420" y="600" as="targetPoint" />
          </mxGeometry>
        </mxCell>
        <mxCell id="k0u0P2U74oiS7Tp1_Vz9-8" value="" style="endArrow=classic;html=1;rounded=0;exitX=0;exitY=0.5;exitDx=0;exitDy=0;" edge="1" parent="1">
          <mxGeometry width="50" height="50" relative="1" as="geometry">
            <mxPoint x="305" y="650" as="sourcePoint" />
            <mxPoint x="195" y="760" as="targetPoint" />
            <Array as="points">
              <mxPoint x="195" y="650" />
            </Array>
          </mxGeometry>
        </mxCell>
        <mxCell id="k0u0P2U74oiS7Tp1_Vz9-9" value="Apakah pengambilan produk &lt;span style=&quot;font-size: 10px;&quot;&gt;&amp;gt;=1000000&lt;/span&gt;" style="rhombus;whiteSpace=wrap;html=1;" vertex="1" parent="1">
          <mxGeometry x="305" y="600" width="230" height="100" as="geometry" />
        </mxCell>
        <mxCell id="k0u0P2U74oiS7Tp1_Vz9-11" value="anda memenuhin syarat menjadi distributor di daerah" style="shape=parallelogram;perimeter=parallelogramPerimeter;whiteSpace=wrap;html=1;fixedSize=1;" vertex="1" parent="1">
          <mxGeometry x="80" y="760" width="210" height="60" as="geometry" />
        </mxCell>
        <mxCell id="k0u0P2U74oiS7Tp1_Vz9-12" value="" style="endArrow=classic;html=1;rounded=0;exitX=0.5;exitY=1;exitDx=0;exitDy=0;" edge="1" parent="1" source="k0u0P2U74oiS7Tp1_Vz9-9">
          <mxGeometry width="50" height="50" relative="1" as="geometry">
            <mxPoint x="400" y="700" as="sourcePoint" />
            <mxPoint x="420" y="760" as="targetPoint" />
          </mxGeometry>
        </mxCell>
        <mxCell id="k0u0P2U74oiS7Tp1_Vz9-13" value="apakah jumlah kendaraan &amp;gt; 8" style="rhombus;whiteSpace=wrap;html=1;" vertex="1" parent="1">
          <mxGeometry x="325" y="760" width="190" height="80" as="geometry" />
        </mxCell>
        <mxCell id="k0u0P2U74oiS7Tp1_Vz9-15" value="" style="endArrow=classic;html=1;rounded=0;exitX=1;exitY=0.5;exitDx=0;exitDy=0;" edge="1" parent="1" source="k0u0P2U74oiS7Tp1_Vz9-13">
          <mxGeometry width="50" height="50" relative="1" as="geometry">
            <mxPoint x="400" y="690" as="sourcePoint" />
            <mxPoint x="640" y="860" as="targetPoint" />
            <Array as="points">
              <mxPoint x="640" y="800" />
              <mxPoint x="640" y="850" />
            </Array>
          </mxGeometry>
        </mxCell>
        <mxCell id="k0u0P2U74oiS7Tp1_Vz9-16" value="anda tidak memenuhi syarat jumlah kendaraan" style="shape=parallelogram;perimeter=parallelogramPerimeter;whiteSpace=wrap;html=1;fixedSize=1;" vertex="1" parent="1">
          <mxGeometry x="550" y="860" width="180" height="60" as="geometry" />
        </mxCell>
        <mxCell id="k0u0P2U74oiS7Tp1_Vz9-17" value="" style="endArrow=classic;html=1;rounded=0;exitX=0.5;exitY=1;exitDx=0;exitDy=0;entryX=0;entryY=0.5;entryDx=0;entryDy=0;" edge="1" parent="1" source="k0u0P2U74oiS7Tp1_Vz9-11" target="k0u0P2U74oiS7Tp1_Vz9-19">
          <mxGeometry width="50" height="50" relative="1" as="geometry">
            <mxPoint x="190" y="870" as="sourcePoint" />
            <mxPoint x="300" y="1040" as="targetPoint" />
            <Array as="points">
              <mxPoint x="185" y="1040" />
            </Array>
          </mxGeometry>
        </mxCell>
        <mxCell id="k0u0P2U74oiS7Tp1_Vz9-18" value="" style="endArrow=classic;html=1;rounded=0;exitX=0.5;exitY=1;exitDx=0;exitDy=0;" edge="1" parent="1" source="k0u0P2U74oiS7Tp1_Vz9-16">
          <mxGeometry width="50" height="50" relative="1" as="geometry">
            <mxPoint x="400" y="990" as="sourcePoint" />
            <mxPoint x="480" y="1040" as="targetPoint" />
            <Array as="points">
              <mxPoint x="640" y="1040" />
            </Array>
          </mxGeometry>
        </mxCell>
        <mxCell id="k0u0P2U74oiS7Tp1_Vz9-19" value="Anda tidak memenuhi&amp;nbsp; syarat minimal pengambilan produk" style="shape=parallelogram;perimeter=parallelogramPerimeter;whiteSpace=wrap;html=1;fixedSize=1;" vertex="1" parent="1">
          <mxGeometry x="300" y="1010" width="190" height="60" as="geometry" />
        </mxCell>
        <mxCell id="k0u0P2U74oiS7Tp1_Vz9-20" value="" style="endArrow=classic;html=1;rounded=0;exitX=0.5;exitY=1;exitDx=0;exitDy=0;" edge="1" parent="1" source="k0u0P2U74oiS7Tp1_Vz9-19">
          <mxGeometry width="50" height="50" relative="1" as="geometry">
            <mxPoint x="400" y="1080" as="sourcePoint" />
            <mxPoint x="395" y="1170" as="targetPoint" />
            <Array as="points" />
          </mxGeometry>
        </mxCell>
        <mxCell id="k0u0P2U74oiS7Tp1_Vz9-22" value="End&amp;nbsp;" style="ellipse;whiteSpace=wrap;html=1;" vertex="1" parent="1">
          <mxGeometry x="335" y="1170" width="120" height="80" as="geometry" />
        </mxCell>
        <mxCell id="k0u0P2U74oiS7Tp1_Vz9-23" value="YES" style="text;html=1;strokeColor=none;fillColor=none;align=center;verticalAlign=middle;whiteSpace=wrap;rounded=0;" vertex="1" parent="1">
          <mxGeometry x="210" y="624" width="60" height="30" as="geometry" />
        </mxCell>
        <mxCell id="k0u0P2U74oiS7Tp1_Vz9-24" value="YES" style="text;html=1;strokeColor=none;fillColor=none;align=center;verticalAlign=middle;whiteSpace=wrap;rounded=0;" vertex="1" parent="1">
          <mxGeometry x="410" y="710" width="60" height="30" as="geometry" />
        </mxCell>
        <mxCell id="k0u0P2U74oiS7Tp1_Vz9-25" value="NO" style="text;html=1;strokeColor=none;fillColor=none;align=center;verticalAlign=middle;whiteSpace=wrap;rounded=0;" vertex="1" parent="1">
          <mxGeometry x="634" y="823" width="60" height="30" as="geometry" />
        </mxCell>
        <mxCell id="k0u0P2U74oiS7Tp1_Vz9-26" value="NO" style="text;html=1;strokeColor=none;fillColor=none;align=center;verticalAlign=middle;whiteSpace=wrap;rounded=0;" vertex="1" parent="1">
          <mxGeometry x="227" y="1008" width="60" height="30" as="geometry" />
        </mxCell>
      </root>
    </mxGraphModel>
  </diagram>
</mxfile>
